<svg id="Layer_1" data-name="Layer 1" xmlns="http://www.w3.org/2000/svg" viewBox="0 0 296.05 300"><defs><style>.cls-1{fill:#fff;}</style></defs><title>Artboard 21 copy 3</title><path class="cls-1" d="M91.93,177a35.13,35.13,0,0,1-1.32,5.25,10.4,10.4,0,0,1-10,6.84q-31.73.14-63.47,0A11,11,0,0,1,6,177.75Q6,103.17,6,28.58A11.15,11.15,0,0,1,17.62,17.06q31.29,0,62.57,0a11.06,11.06,0,0,1,11.3,10.48c.16,2,0,4,0,6.46a13.54,13.54,0,0,0,2.54-.63,29.86,29.86,0,0,0,4.06-2.27c10-6.91,21.24-10.49,33.13-12.35a264.59,264.59,0,0,1,43-3.27c24.14.18,48.29.05,72.43.05,21.8,0,35.87,20.73,27.74,40.94a1.64,1.64,0,0,0,.6,2.23c10.86,9.38,13.68,24,7,36.54a1.87,1.87,0,0,0,.29,2.59,29.19,29.19,0,0,1,2.54,36.27,34.64,34.64,0,0,1-4.2,4.86,1.8,1.8,0,0,0-.51,2.42c9.08,20-5,41.84-27,41.91-19.9.06-39.8,0-59.7,0h-3.06c1,2.06,1.81,3.88,2.73,5.65,4.41,8.5,8.55,17.09,11,26.39,3.25,12.09,4.68,24.3,2.15,36.7-1.88,9.24-5.3,17.73-12.66,24.14-7.6,6.62-16.27,9.67-26.34,7.78-12.83-2.41-21.33-12.88-21.5-26.25-.07-5.07.1-10.18-.41-15.21A54.09,54.09,0,0,0,137,219a126,126,0,0,0-29.93-33A67.86,67.86,0,0,0,91.93,177ZM91.7,56.61c0,.48-.12.95-.12,1.41q0,46.7,0,93.4c0,1.17.45,1.57,1.5,2,5.13,2.1,10.48,3.87,15.25,6.62,21.41,12.32,37.85,29.65,50.22,50.93a75.08,75.08,0,0,1,8.5,23.47c1.49,7.56,1.56,15.19,1.39,22.85-.08,3.46,1.93,5.21,5.36,4.6a11,11,0,0,0,3.88-1.69c3.38-2.19,4.8-5.69,5.87-9.35,2.56-8.75,1.78-17.48-.16-26.23-2-9-5.87-17.16-10.14-25.18s-7.43-16.67-7.63-26.06c-.16-7.68,4.5-12.59,12.14-12.59h74a25.59,25.59,0,0,0,2.69-.07,6.86,6.86,0,0,0,6-7.62c-.5-3.71-3.23-6.09-7.18-6.1-9.68,0-19.36,0-29,0-6.68,0-11.67-4.9-11.64-11.27s5-11.22,11.67-11.2c11.17,0,22.34.17,33.51.23a24.46,24.46,0,0,0,3.92-.35,6.85,6.85,0,0,0,5.82-7.26c-.21-3.91-3.28-6.5-7.76-6.51q-19.09,0-38.19,0a10.63,10.63,0,0,1-10-5.86C207.36,97,212.92,88.15,222,88.14c11.12,0,22.23,0,33.35,0a9.93,9.93,0,0,0,4.44-1,6.59,6.59,0,0,0,3.09-7.7,6.83,6.83,0,0,0-6.84-5c-13,0-26.06,0-39.08,0a11.2,11.2,0,0,1-11.52-11.2c0-6.39,5-11.26,11.64-11.28,5.5,0,11,0,16.49,0,4.66,0,9.32.07,14,0a6.87,6.87,0,0,0,6.62-8.5c-.7-3.19-3.57-5.26-7.38-5.26-23.31,0-46.61.11-69.92,0a259.57,259.57,0,0,0-37.71,2.28c-10.7,1.49-21,4-30,10.42A30.54,30.54,0,0,1,97.6,55.84C95.69,56.23,93.73,56.35,91.7,56.61ZM28.64,166.47H68.94V39.68H28.64Z"/></svg>