<svg id="Layer_1" data-name="Layer 1" xmlns="http://www.w3.org/2000/svg" viewBox="0 0 296.05 300"><defs><style>.cls-1{fill:#fff;}</style></defs><title>Artboard 21 copy 2</title><path class="cls-1" d="M147.52,278.5H43.59c-14.31,0-27-3.88-35.15-16.52-8.2-12.8-6.4-26.28.78-38.61,35.19-60.49,70.28-121.06,106.43-181,16.91-28,47.83-28.07,64.76,0q54.28,89.84,106.32,181c16.13,28.21-.19,54.57-33,55C218.31,278.84,182.91,278.49,147.52,278.5Zm-.06-20c33.89,0,67.77.12,101.66,0,23.62-.12,29.41-10.06,17.53-30.4Q216.53,142.36,166,56.84c-11.79-20-24.16-20-35.92-.06Q79.61,142.3,29.5,228.06c-11.9,20.37-6.11,30.36,17.43,30.47C80.44,258.69,114,258.57,147.46,258.55Z"/><path class="cls-1" d="M165,103.61q-1.93,37.18-3.88,74.36c-.14,2.62.32,5.95-1.07,7.69-3.37,4.24-7.13,9.9-11.72,11-7.43,1.85-11.85-4.24-12.49-11.28-1.46-16.09-2.25-32.25-3.22-48.39-.68-11.26-1.21-22.53-1.8-33.8-.61-11.83,5.73-19.18,16.73-19.41C158.84,83.58,165.81,91.4,165,103.61Z"/><path class="cls-1" d="M148.33,237.85a15.66,15.66,0,0,1-16.05-15.31c-.12-8.42,7.14-16,15.5-16.16s15.82,7.05,16,15.59A15.56,15.56,0,0,1,148.33,237.85Z"/></svg>