<svg id="Layer_1" data-name="Layer 1" xmlns="http://www.w3.org/2000/svg" viewBox="0 0 296.05 300"><defs><style>.cls-1{fill:#fff;}</style></defs><title>Artboard 21 copy</title><path class="cls-1" d="M192.54,2c4.22,2,8.83,3.4,12.53,6.08,3,2.15,5.07,5.68,7.13,8.87,1,1.59,1.8,1.86,3.6,1.67,9.48-1,19.05-1.91,28.37.69,10.26,2.85,17.27,11.91,18.22,22.61.13,1.44.15,2.89.15,4.33q0,59.4,0,118.8c0,21.14-11.81,38.26-31.29,44.84-5,1.7-10.49,2.15-16.24,3.27v2.79q0,35,0,70a19.55,19.55,0,0,1-.56,5.14,9.86,9.86,0,0,1-19-.58,21.39,21.39,0,0,1-.42-4.59q0-40.61,0-81.22c0-8.41,3.77-12.11,12.16-12.23,5-.07,10.1.2,15-.72,10.67-2,20.09-11,20.48-25,.34-12,.07-24.07.07-36.32-19.66,6.29-34.58.59-45-17.4-14.45,6.92-28,5.29-40.16-5.4-2.74,1.87-5.49,3.63-8.11,5.56-1.86,1.37-1.3,6.51.79,8.07a40.69,40.69,0,0,1,16,24.3,44.61,44.61,0,0,1,1.06,9.15c.13,10.5.17,21,0,31.5-.09,6.24-4.37,10.37-10.12,10.25s-9.69-4.43-9.72-10.7c0-9.92,0-19.85,0-29.77,0-7.55-2.51-13.06-7.82-17.55-2.19,1.7-4.29,3.54-6.59,5.07a33.21,33.21,0,0,1-18.86,5.4c-14.07,0-28.13,0-42.2,0H68.73c2.19,15,6.44,28.51,19.81,37.16a38.84,38.84,0,0,0,17.5,6.19c1.34.13,2.7.14,4,.28,6.09.65,9.63,4.43,9.63,10.51q0,42.2,0,84.4c0,5.57-3.38,9.66-8.43,10.46a9.74,9.74,0,0,1-10.82-6.7,19,19,0,0,1-.57-5.41q-.05-35.7,0-71.4c0-1.36.4-2.69-1.8-3.23-26.46-6.44-41.73-23.53-47.23-49.87-.92-4.43-1.83-8.86-3-13.23a6.33,6.33,0,0,0-2.33-3.3C38,139.5,33.68,132.4,33.58,123.16c-.08-7.11-.36-14.34.77-21.3,1.43-8.82,7.14-15,15.45-18.4a3.25,3.25,0,0,0,2.41-3.57c-.09-16.57-.07-33.14,0-49.72,0-6.93,1.65-13.31,6.29-18.72a25.54,25.54,0,0,1,16-9A8.33,8.33,0,0,0,75.76,2H97.15c3.92,1.7,7.83,3.43,11.78,5.07A2.66,2.66,0,0,0,110.76,7c4-1.63,7.89-3.32,11.82-5h22c3.94,1.67,7.87,3.37,11.84,5a3,3,0,0,0,2.06,0C162.32,5.33,166.15,3.65,170,2Zm2.4,54.34H195c0-9,0-17.91,0-26.86,0-5.12-2.26-7.43-7.34-7.54-4.33-.1-8.67-.11-13,0-4.9.13-7.24,2.42-7.26,7.37-.07,17.81,0,35.62,0,53.44a13.71,13.71,0,0,0,4.57,10.82c4.3,3.77,9.27,4.72,14.51,2.53s8.32-6.28,8.43-12C195.06,74.83,194.94,65.58,194.94,56.34ZM87.36,129c8.47,0,16.95,0,25.42,0a23.13,23.13,0,0,0,6-.69c6.64-1.86,10.52-8.05,9.68-15.1a13.32,13.32,0,0,0-12.94-11.75c-18.39-.15-36.78-.11-55.16-.07-4.45,0-6.83,2.46-7,7.06-.12,3.94,0,7.89,0,11.84,0,6.48,2.22,8.73,8.61,8.74Q74.65,129,87.36,129ZM215,72.33h0c0,9.15-.13,18.29,0,27.44A13.56,13.56,0,0,0,228.44,113c8.17.18,14.18-6,14.26-14.79.09-10,0-20,0-30,0-7.61.05-15.21,0-22.82,0-5.06-2.5-7.5-7.41-7.56-4.14,0-8.28,0-12.42,0-5.58,0-7.83,2.29-7.85,7.94C215,54.61,215,63.47,215,72.33ZM141.59,94.55a14.07,14.07,0,0,0,5.85-12q0-26.55,0-53.1c0-5-2.35-7.41-7.4-7.54-4-.1-8.08,0-12.12,0-5.93,0-8.18,2.31-8.18,8.24q0,23.52,0,47v4.46A34.85,34.85,0,0,1,141.59,94.55ZM72.18,81.1H99.53a3.09,3.09,0,0,0,.27-.74c0-17.14.1-34.28,0-51.41,0-4.57-2.46-6.84-7.06-7-4.14-.13-8.28-.06-12.42,0-6,0-8.14,2.21-8.15,8.22q0,22.82,0,45.64C72.18,77.5,72.18,79.21,72.18,81.1Z"/></svg>