<svg id="Layer_1" data-name="Layer 1" xmlns="http://www.w3.org/2000/svg" viewBox="0 0 296.05 300"><defs><style>.cls-1{fill:#fff;}</style></defs><title>Artboard 21</title><path class="cls-1" d="M238.84,146.83a3.86,3.86,0,0,1-.12,1.3c-4.46,9.31-9.88,18-17.1,25.44-4,4.13-8.11,8.14-12,12.36a39.72,39.72,0,0,0-4.38,6.09,48.51,48.51,0,0,0-7.2,27.6,1.67,1.67,0,0,0,.66,1.12,11.27,11.27,0,0,1,4.95,10c-.07,4,0,8-.2,12a9.53,9.53,0,0,1-4.34,7.36,2.41,2.41,0,0,0-1.14,2.34c.08,4.07.08,8.15,0,12.23a10.5,10.5,0,0,1-10.57,10.43c-1.69,0-3.38.05-5.07,0-.93,0-1.25.22-1.33,1.21a23.52,23.52,0,0,1-16.28,20.53,28,28,0,0,1-7.28,1.11c-6.11.15-12.23.06-18.34,0-12.4,0-21.84-8.07-23.85-20.31-.13-.8-.25-1.61-.39-2.55-1.82,0-3.64-.08-5.44,0A10.76,10.76,0,0,1,98,263.71c.15-4,.06-8,0-12a1.75,1.75,0,0,0-.61-1.25,11.42,11.42,0,0,1-5-10.26c.08-3.77,0-7.55.14-11.31A9.87,9.87,0,0,1,97,221.07a2.28,2.28,0,0,0,1.06-2.14,50,50,0,0,0-5.32-22.79,60,60,0,0,0-13.33-17.26,101.39,101.39,0,0,1-28.7-49.09A107,107,0,0,1,50.47,80a103.13,103.13,0,0,1,6.76-19.33c.13-.29.5-.47.76-.7l7.27,7.27a8.82,8.82,0,0,1-.34,1.49A91.26,91.26,0,0,0,58,100.25a92.78,92.78,0,0,0,6.65,39A88.89,88.89,0,0,0,86,170.76c5.44,5.16,10.44,10.64,14.1,17.19a62.07,62.07,0,0,1,8.14,27c.08,1.32.18,2.64.27,4h19.74V217q0-22.51,0-45,0-7.54,0-15.09c0-.66,0-1.18-.8-1.54-3.91-1.75-7.87-3.42-11.63-5.45-7.47-4-12.35-10.11-13.43-18.76A15.54,15.54,0,0,1,105.61,119a16.54,16.54,0,0,1,9.25-5.42,13.37,13.37,0,0,1,13.67,3.86c4.37,4.55,6.24,10.28,6.9,16.34.51,4.68.34,9.43.47,14.15,0,.64,0,1.29,0,1.94a50.93,50.93,0,0,0,23,.32c1.06-.22,1.3-.67,1.28-1.65,0-2.9,0-5.81,0-8.72a38.91,38.91,0,0,1,3.11-15.92c1.63-3.67,3.83-6.91,7.39-9,4.22-2.45,8.57-2.21,13-.58a14.77,14.77,0,0,1,10.08,14.16c0,7.64-3.16,13.75-9,18.47-4.6,3.71-10,6-15.43,8.19a2,2,0,0,0-1.53,2.23c.07,4.76,0,9.52,0,14.29q0,22.77,0,45.53v1.69h19.68c.22-2.45.56-4.81.62-7.18A44.87,44.87,0,0,1,191,198.33a58.13,58.13,0,0,1,15.94-24.46,94.61,94.61,0,0,0,24-33.55c.13-.3.49-.5.74-.75ZM136,157.91v61h24.15v-61A62,62,0,0,1,136,157.91Zm12.15,71.46h-19c-8.28,0-16.56,0-24.85,0-1.28,0-1.62.42-1.59,1.65.08,3,0,6,0,9,0,1.8,0,1.81,1.76,1.81h50.68c12.18,0,24.37,0,36.55,0,1.33,0,1.71-.37,1.66-1.69-.1-3,0-6,0-9,0-1.77,0-1.77-1.79-1.77Zm39.51,23h-79.1V264.5h79.1Zm-16.89,22.82H125.35a12.19,12.19,0,0,0,.08,1.22,13,13,0,0,0,12.86,11c6.46,0,12.92,0,19.38,0a12.55,12.55,0,0,0,10-4.52A12.29,12.29,0,0,0,170.73,275.17Zm-2.82-128.08.38.39c3.69-2,7.53-3.86,11-6.18a14.93,14.93,0,0,0,6.62-10.15c.78-4.37-.6-7.48-4.3-9.27-3.4-1.65-6.67-1.31-8.86,1.35a16.66,16.66,0,0,0-3.18,5.68,49.83,49.83,0,0,0-1.64,9.4C167.7,141.21,167.91,144.16,167.91,147.09Zm-39.95.25c.16-.37.25-.48.25-.59-.16-4.41-.14-8.84-.57-13.22a19.46,19.46,0,0,0-3.51-9.36c-1.68-2.38-3.87-3.61-6.9-3.12-4.1.65-6.83,3-7.19,6.56a13.69,13.69,0,0,0,1.87,8.48C115.53,142.25,122,144.3,128,147.33Z"/><path class="cls-1" d="M65.27,67.21,58,59.93a4,4,0,0,1,.18-1.19A101.25,101.25,0,0,1,69.64,40.53a99.59,99.59,0,0,1,43.58-32.1,94.73,94.73,0,0,1,29.84-6.27,96.67,96.67,0,0,1,51.78,11.62,100,100,0,0,1,21.78,15.84,95.8,95.8,0,0,1,16.15,19.93c1.9,3.14,3.58,6.42,5.32,9.66a4.11,4.11,0,0,1,.22,1.28l-7.25,7.24a8.46,8.46,0,0,1-1-1.39A91.85,91.85,0,0,0,209.37,37a93.49,93.49,0,0,0-21.9-15.44,79.81,79.81,0,0,0-17.1-6.32,88.9,88.9,0,0,0-42.46-.49A87.7,87.7,0,0,0,89.83,34.31a91.81,91.81,0,0,0-23.6,31.44A10.87,10.87,0,0,1,65.27,67.21Z"/><path class="cls-1" d="M231.05,67.73l7.25-7.24c.25.22.61.39.73.66a104.42,104.42,0,0,1,6.45,67.71A93.88,93.88,0,0,1,239.63,146c-.15.32-.52.53-.79.8l-7.21-7.25a2.9,2.9,0,0,1,0-1.05,93.22,93.22,0,0,0-.29-69.23A7.42,7.42,0,0,1,231.05,67.73Z"/></svg>